<?xml version="1.0" encoding="UTF-8"?>
<svg version="1.1" xmlns="http://www.w3.org/2000/svg" width="512" height="512">
<path d="M0 0 C1.05519396 -0.00623996 2.11038792 -0.01247993 3.19755745 -0.01890898 C6.70338987 -0.03475555 10.20851894 -0.02226701 13.71435547 -0.00964355 C16.23997399 -0.01506835 18.76558934 -0.02219301 21.29119873 -0.03088379 C27.42096152 -0.04719099 33.55046749 -0.04485792 39.68023348 -0.03323323 C44.66511419 -0.02417374 49.64994006 -0.02298573 54.63482666 -0.02732849 C55.34620352 -0.02794142 56.05758038 -0.02855436 56.79051411 -0.02918586 C58.23598021 -0.03046485 59.68144629 -0.03176171 61.12691236 -0.03307623 C74.65869852 -0.04446321 88.19037603 -0.03139795 101.72214437 -0.00987476 C113.31530557 0.00799454 124.90830653 0.0048899 136.50146484 -0.0135498 C149.98715029 -0.03498987 163.47274067 -0.04336475 176.95844078 -0.03110075 C178.39838026 -0.02982665 179.83831976 -0.02856916 181.27825928 -0.02732849 C181.98660703 -0.02671139 182.69495478 -0.02609429 183.42476761 -0.02545848 C188.3995958 -0.02201497 193.37436334 -0.02781229 198.34918213 -0.0372467 C205.0535797 -0.04968252 211.75762933 -0.04073988 218.46201324 -0.01766968 C220.91815948 -0.0123941 223.37433124 -0.01387654 225.83046722 -0.02272034 C229.19167952 -0.03370448 232.55193411 -0.0198764 235.91308594 0 C236.87740602 -0.00892289 237.84172611 -0.01784577 238.83526802 -0.02703905 C250.45714018 0.10561922 259.72979055 4.38239 267.95654297 12.50793457 C278.72672475 25.15421253 278.53768714 39.02202991 278.47412109 54.7713623 C278.47954716 57.02935232 278.48667254 59.28733879 278.49536133 61.5453186 C278.51354076 67.65487114 278.50654896 73.76415238 278.49384499 79.87370944 C278.48368824 86.28093089 278.4931182 92.68812977 278.49938965 99.09535217 C278.50712385 110.54278586 278.49472464 121.99006989 278.4743523 133.43747825 C278.45648766 143.79606689 278.45958452 154.15447613 278.47802734 164.51306152 C278.49948176 176.56862199 278.50737552 188.62404716 278.49557829 200.67963368 C278.48935778 207.05151075 278.48846794 213.42326454 278.50172424 219.79513359 C278.51332182 225.78792552 278.50518541 231.78038042 278.48214722 237.77313614 C278.47688078 239.96601491 278.47833828 242.15892228 278.48719788 244.35178947 C278.54841828 261.05070359 277.50276538 273.84241101 265.22998047 286.25402832 C254.47865415 296.09713758 242.42747352 296.80156578 228.48779297 296.71569824 C226.92325949 296.71353431 225.3587244 296.71235006 223.79418945 296.71206665 C220.43738633 296.71001856 217.08065999 296.70234839 213.72387695 296.69063377 C208.41141839 296.67341645 203.09909515 296.67674051 197.78662109 296.6842804 C182.68433262 296.70342931 167.58222165 296.7101152 152.47998047 296.66247559 C144.12957959 296.63630263 135.77956531 296.6350221 127.42916107 296.66162282 C123.01554032 296.67459669 118.60275855 296.67463084 114.18920898 296.64375877 C110.03880502 296.61478135 105.88968651 296.61830868 101.73928833 296.64636612 C100.22037449 296.65085075 98.70136979 296.6434626 97.18258667 296.62303734 C87.60711619 296.36460553 87.60711619 296.36460553 79.3600769 300.69613647 C78.19597523 301.9396822 77.05893836 303.20937264 75.95654297 304.50793457 C74.95249809 305.49291184 73.94071947 306.47009212 72.91995239 307.43772888 C71.95442955 308.40635949 70.99159825 309.37767924 70.03125 310.35144043 C69.49684799 310.888909 68.96244598 311.42637756 68.41184998 311.98013306 C67.26880361 313.13025475 66.12689558 314.28150876 64.98605728 315.43382072 C63.18140168 317.25605307 61.37306454 319.0745588 59.56369019 320.8921051 C54.42599039 326.05411578 49.29417593 331.22194967 44.16650391 336.3939209 C41.01680947 339.57031487 37.86232731 342.74188741 34.70479965 345.91049385 C33.50437522 347.11713717 32.30585301 348.32567594 31.10925674 349.53611565 C29.44580905 351.21866687 27.77639583 352.89507162 26.10546875 354.57019043 C25.61093704 355.07348373 25.11640533 355.57677704 24.60688782 356.09532166 C21.1844428 359.50793457 21.1844428 359.50793457 18.95654297 359.50793457 C18.95067673 358.77543991 18.94481049 358.04294525 18.93876648 357.28825378 C18.88087657 350.38711469 18.80882131 343.48625345 18.72082806 336.58543682 C18.67608915 333.03757178 18.63684126 329.48982249 18.61010742 325.94177246 C18.57913671 321.86326916 18.52434692 317.78538912 18.46826172 313.70715332 C18.4618718 312.4320842 18.45548187 311.15701508 18.44889832 309.8433075 C18.42910416 308.66230972 18.40931 307.48131195 18.38891602 306.26452637 C18.37226143 304.70232613 18.37226143 304.70232613 18.35527039 303.10856628 C18.16242206 300.47939437 18.16242206 300.47939437 16.57284546 298.67219543 C14.33108289 297.0574009 12.73003081 297.12370377 9.98388672 297.10168457 C8.50952148 297.06881348 8.50952148 297.06881348 7.00537109 297.03527832 C5.97863281 297.02625488 4.95189453 297.01723145 3.89404297 297.00793457 C-9.1295414 296.89037804 -20.48947784 294.54094968 -30.30908203 285.39855957 C-38.97525449 276.09044841 -42.35560628 266.54657033 -42.31088257 253.97052002 C-42.31541368 253.02899967 -42.31994479 252.08747933 -42.32461321 251.11742806 C-42.33724149 247.97248145 -42.33563784 244.82770837 -42.33398438 241.68273926 C-42.33997062 239.42371906 -42.34677639 237.1647009 -42.3543396 234.90568542 C-42.37199754 228.77538062 -42.37669492 222.64513166 -42.37797117 216.51480389 C-42.37939351 212.68255471 -42.38366471 208.85031969 -42.38896561 205.01807404 C-42.40651124 192.33217368 -42.41580594 179.64631405 -42.41430466 166.96040484 C-42.41422475 166.27725665 -42.41414483 165.59410845 -42.4140625 164.89025879 C-42.41398074 164.2062707 -42.41389898 163.52228262 -42.41381474 162.81756762 C-42.41300225 151.73852577 -42.43213286 140.65962002 -42.46033923 129.58061752 C-42.48911208 118.18867373 -42.50251137 106.79681684 -42.50115168 95.40482831 C-42.50064237 89.01557906 -42.50630867 82.62648384 -42.52750778 76.23726654 C-42.54690954 70.22568068 -42.54700108 64.21439547 -42.53247452 58.20279884 C-42.53038771 56.00143048 -42.53507959 53.80004321 -42.54719543 51.5987072 C-42.62299692 36.86746017 -42.04364175 24.25008695 -32.04345703 12.50793457 C-22.82605079 3.40392349 -12.82326282 -0.11865409 0 0 Z M-0.31689453 49.38684082 C-4.73957165 54.82012968 -7.14989211 60.78292349 -7.19062805 67.79397583 C-7.19778336 68.6432666 -7.20493866 69.49255737 -7.21231079 70.36758423 C-7.21499969 71.29126801 -7.2176886 72.21495178 -7.22045898 73.16662598 C-7.22703018 74.14601135 -7.23360138 75.12539673 -7.2403717 76.13446045 C-7.26008336 79.37614013 -7.27176379 82.61777349 -7.28173828 85.85949707 C-7.28581381 86.96866863 -7.28988934 88.07784019 -7.29408836 89.22062302 C-7.31494191 95.09357262 -7.32924568 100.96649893 -7.33862305 106.83947754 C-7.34967438 112.89195932 -7.38406201 118.94407214 -7.42379475 124.99642372 C-7.44999935 129.66173973 -7.45831841 134.32696841 -7.46190453 138.99235153 C-7.466762 141.22256329 -7.4783519 143.45277136 -7.49694252 145.68291092 C-7.52141088 148.81319244 -7.52035441 151.94252718 -7.51342773 155.07287598 C-7.52623779 155.98441437 -7.53904785 156.89595276 -7.55224609 157.83511353 C-7.47576538 167.37573566 -4.30265895 174.9379926 2.24169922 181.82824707 C11.12505787 190.52948675 20.56470945 192.66883405 32.79231262 192.64164734 C33.9300117 192.64504567 33.9300117 192.64504567 35.09069461 192.64851266 C37.61606152 192.65481059 40.14137418 192.65402602 42.66674805 192.65319824 C44.48404509 192.65619236 46.3013415 192.65959547 48.11863708 192.66337585 C53.04436016 192.6721943 57.97006585 192.67455306 62.89579606 192.67519164 C65.97624978 192.67590336 69.0566991 192.67803999 72.13715172 192.68068886 C82.89246271 192.68993511 93.64776133 192.69402464 104.40307617 192.6932373 C114.41470198 192.69263669 124.42627389 192.70318721 134.43788606 192.71898097 C143.04533351 192.73207375 151.65276338 192.73742047 160.26022071 192.7367819 C165.39575229 192.73652742 170.53123595 192.73935066 175.66675758 192.74995995 C180.49881887 192.7596702 185.33078668 192.75970007 190.16285133 192.75244331 C191.93085874 192.75140111 193.69887205 192.7537386 195.46686935 192.75980377 C210.37848223 192.80762367 222.88645844 192.40474238 234.26904297 181.69543457 C239.80265947 175.86419328 243.05665412 169.321355 243.10371399 161.22189331 C243.11086929 160.37260254 243.1180246 159.52331177 243.12539673 158.64828491 C243.12808563 157.72460114 243.13077454 156.80091736 243.13354492 155.84924316 C243.14340172 154.3801651 243.14340172 154.3801651 243.15345764 152.88140869 C243.1731693 149.63972901 243.18484972 146.39809565 243.19482422 143.15637207 C243.19889975 142.04720051 243.20297527 140.93802895 243.2071743 139.79524612 C243.22802785 133.92229652 243.24233161 128.04937021 243.25170898 122.1763916 C243.26276032 116.12390982 243.29714795 110.071797 243.33688068 104.01944542 C243.36308528 99.35412941 243.37140435 94.68890073 243.37499046 90.02351761 C243.37984794 87.79330585 243.39143784 85.56309778 243.41002846 83.33295822 C243.43449681 80.2026767 243.43344035 77.07334196 243.42651367 73.94299316 C243.43932373 73.03145477 243.45213379 72.11991638 243.46533203 71.18075562 C243.38885132 61.64013348 240.21574488 54.07787654 233.67138672 47.18762207 C224.4798924 38.18456385 214.60653996 36.34591513 202.08317566 36.3742218 C201.33272785 36.37195625 200.58228004 36.36969069 199.80909139 36.36735648 C197.31680334 36.36107143 194.82457044 36.36184228 192.33227539 36.3626709 C190.53615754 36.35967598 188.74004032 36.35627269 186.94392395 36.35249329 C182.0801744 36.34368316 177.21644245 36.34131644 172.35268569 36.3406775 C169.30990845 36.33996533 166.26713565 36.33782785 163.22435951 36.33518028 C152.59756818 36.32593691 141.97078936 36.32184415 131.34399414 36.32263184 C121.45676723 36.32323243 111.56959491 36.31268157 101.68238181 36.29688817 C93.17765777 36.28378985 84.67295152 36.2784489 76.16821748 36.27908725 C71.09582587 36.27934155 66.02348281 36.27652778 60.9511013 36.26590919 C56.17811916 36.25618952 51.4052316 36.25617546 46.63224602 36.26342583 C44.88723359 36.26446685 43.14221515 36.26213762 41.39721298 36.25606537 C24.9700361 36.20263463 11.57054568 36.86003629 -0.31689453 49.38684082 Z M79.33154297 226.00793457 C78.51427734 226.65762207 77.69701172 227.30730957 76.85498047 227.97668457 C76.22849609 228.48199707 75.60201172 228.98730957 74.95654297 229.50793457 C80.1261456 241.31639532 92.40739018 249.73332382 103.95654297 254.50793457 C115.98823341 258.47736407 127.4861649 256.52740092 138.89404297 251.50793457 C147.70794324 246.87570903 154.76767692 239.16228803 160.95654297 231.50793457 C159.35933578 227.19547517 156.64020478 225.08649784 152.95654297 222.50793457 C149.96869251 222.61636463 149.03882042 223.42293588 146.94873047 225.58215332 C145.90072266 226.87572754 145.90072266 226.87572754 144.83154297 228.19543457 C138.67699967 235.28279168 130.83484023 240.86622754 121.27685547 241.75793457 C110.45232287 242.19862801 101.91985335 238.8182535 93.95654297 231.50793457 C91.77482731 229.14440928 89.67248383 226.74271577 87.62060547 224.26574707 C87.07146484 223.68566895 86.52232422 223.10559082 85.95654297 222.50793457 C82.96168059 222.50793457 81.63627364 224.16415003 79.33154297 226.00793457 Z " fill="#6D59F0" transform="translate(138.04345703125,152.4920654296875)"/>
<path d="M0 0 C1.18242783 -0.00511093 2.36485565 -0.01022186 3.58311462 -0.01548767 C7.451703 -0.02926885 11.32011086 -0.02843524 15.1887207 -0.02612305 C17.21854012 -0.02843973 19.24835526 -0.03194413 21.27817279 -0.03552979 C27.65128686 -0.04656976 34.02434197 -0.04709449 40.39746094 -0.04101562 C46.92023 -0.03498851 53.44278266 -0.04726737 59.96551484 -0.06858569 C65.61103594 -0.08634237 71.25648905 -0.09218093 76.90203696 -0.08894795 C80.25375649 -0.0871562 83.60520038 -0.09091936 86.9569149 -0.10366249 C104.97538921 -0.16375872 122.11578567 0.52149023 139.42700195 5.9621582 C140.25039063 6.21707031 141.0737793 6.47198242 141.92211914 6.73461914 C181.06784208 19.27383464 213.50706615 46.98044144 232.51391602 83.35473633 C243.12947799 104.27788386 249.64524589 126.98851239 249.54052734 150.55810547 C249.54067337 151.43724106 249.5408194 152.31637665 249.54096985 153.22215271 C249.5402795 156.0951494 249.53252869 158.96807925 249.5246582 161.84106445 C249.5227909 163.8460232 249.52136847 165.8509824 249.52037048 167.85594177 C249.51656992 173.10838095 249.50676086 178.36079205 249.4956665 183.61322021 C249.48539926 188.98278422 249.48086152 194.35235281 249.47583008 199.72192383 C249.46513619 210.23951422 249.44808961 220.75708387 249.42700195 231.2746582 C250.35809532 231.4742942 250.35809532 231.4742942 251.30799866 231.67796326 C252.12078781 231.85481155 252.93357697 232.03165985 253.77099609 232.21386719 C254.57735001 232.38820786 255.38370392 232.56254852 256.2144928 232.74217224 C267.01837406 235.3423491 276.49648061 244.75989994 282.1809082 253.9387207 C285.99845551 261.095126 288.52673608 267.99385027 288.60400391 276.12207031 C288.61683914 277.30107407 288.62967438 278.48007782 288.64289856 279.69480896 C288.65397896 281.60411949 288.65397896 281.60411949 288.6652832 283.55200195 C288.67335495 284.86946915 288.6814267 286.18693634 288.68974304 287.54432678 C288.7047532 290.33765532 288.71459591 293.13095865 288.72216797 295.92431641 C288.73316074 299.46781977 288.76748221 303.0106827 288.80733967 306.55396175 C288.83375904 309.30728653 288.84188243 312.06046541 288.84544945 314.81390572 C288.85256934 316.7440252 288.87890661 318.67404393 288.90583801 320.60398865 C288.87579886 333.0010573 286.06627521 343.42982049 278.42700195 353.2746582 C277.31325195 354.8215332 277.31325195 354.8215332 276.17700195 356.3996582 C268.73960659 364.17511699 259.7777506 368.68697104 249.42700195 371.2746582 C240.84700195 371.2746582 232.26700195 371.2746582 223.42700195 371.2746582 C223.42700195 324.7446582 223.42700195 278.2146582 223.42700195 230.2746582 C226.72700195 230.2746582 230.02700195 230.2746582 233.42700195 230.2746582 C233.38865116 218.77222726 233.32887091 207.27011438 233.24309921 195.76793385 C233.20389891 190.42470538 233.17157784 185.08163496 233.15600586 179.73828125 C233.14065592 174.56385798 233.10589494 169.38987008 233.05869293 164.21564293 C233.0440654 162.25974032 233.03597191 160.30377549 233.0351181 158.34781837 C233.00415739 122.92384517 222.06220001 88.44815893 197.3684082 62.3371582 C195.42700195 60.2746582 195.42700195 60.2746582 193.05200195 57.2121582 C170.91828171 32.44347126 135.88045937 18.80390112 103.42700195 16.2746582 C99.85438558 16.13750045 96.28593778 16.1177726 92.7109375 16.11352539 C91.68982376 16.10856049 90.66871002 16.10359558 89.61665344 16.09848022 C86.26566877 16.0839757 82.91473151 16.07707415 79.5637207 16.0715332 C78.40758585 16.06870583 77.251451 16.06587845 76.06028175 16.06296539 C69.9347168 16.04801583 63.80917512 16.03876121 57.68359375 16.03442383 C51.41496423 16.02896361 45.14655458 16.00497511 38.87799358 15.97645187 C34.00722166 15.95765029 29.13650069 15.95261054 24.26569557 15.95108795 C21.95806497 15.94809727 19.65043446 15.94019327 17.34284019 15.92690277 C-21.9601782 15.71680031 -56.05824434 24.64427926 -86.57299805 50.2746582 C-87.33354492 50.89985352 -88.0940918 51.52504883 -88.87768555 52.16918945 C-94.89463391 57.28047258 -99.76749335 63.0275021 -104.57299805 69.2746582 C-105.25362305 70.1512207 -105.93424805 71.0277832 -106.63549805 71.9309082 C-123.07218636 93.76088487 -133.58665745 120.92451295 -133.77832031 148.42285156 C-133.78821991 149.31144867 -133.79811951 150.20004578 -133.80831909 151.11557007 C-133.83972676 154.03185426 -133.86460894 156.94815469 -133.8894043 159.86450195 C-133.90999176 161.89474392 -133.93098869 163.92498177 -133.95237732 165.95521545 C-134.00741294 171.28326066 -134.05690342 176.61134336 -134.10522461 181.93945312 C-134.15557526 187.38260206 -134.21119034 192.82569695 -134.26635742 198.26879883 C-134.37371241 208.93737239 -134.47520716 219.60599299 -134.57299805 230.2746582 C-131.27299805 230.2746582 -127.97299805 230.2746582 -124.57299805 230.2746582 C-124.57299805 276.8046582 -124.57299805 323.3346582 -124.57299805 371.2746582 C-158.44963847 371.2746582 -158.44963847 371.2746582 -171.57299805 361.2746582 C-173.11987305 360.1609082 -173.11987305 360.1609082 -174.69799805 359.0246582 C-183.09168572 350.99591347 -189.11051352 340.18778269 -189.72016907 328.43833923 C-189.73001328 327.4019783 -189.73985748 326.36561737 -189.75 325.29785156 C-189.76283524 324.11569565 -189.77567047 322.93353973 -189.78889465 321.71556091 C-189.79628159 320.44471146 -189.80366852 319.173862 -189.8112793 317.86450195 C-189.81935104 316.54607803 -189.82742279 315.22765411 -189.83573914 313.86927795 C-189.85073182 311.07772962 -189.86058414 308.28620636 -189.86816406 305.49462891 C-189.87917807 301.94993633 -189.91353256 298.40588022 -189.95333576 294.86141109 C-189.97971969 292.10812871 -189.98787524 289.35499254 -189.99144554 286.60159492 C-189.99857534 284.66976531 -190.02492225 282.73803654 -190.05183411 280.80638123 C-190.01762557 266.72547618 -185.5335899 254.36173985 -175.82299805 244.0246582 C-169.38447077 237.95404677 -159.82064183 231.2746582 -150.57299805 231.2746582 C-150.57965988 230.19154358 -150.58632172 229.10842896 -150.59318542 227.99249268 C-150.65446457 217.69745426 -150.69919252 207.40245369 -150.72843456 197.1072731 C-150.7439744 191.81663559 -150.7649943 186.52614735 -150.79931641 181.2355957 C-150.83233272 176.11324382 -150.84993842 170.9910339 -150.85762978 165.86858368 C-150.86309855 163.93133057 -150.87377285 161.99408367 -150.89018822 160.0568924 C-151.02467665 143.50083637 -149.95382798 126.88840071 -144.82299805 111.0246582 C-144.56623291 110.20513672 -144.30946777 109.38561523 -144.04492188 108.54125977 C-136.20027301 84.22166863 -123.14506898 63.72019465 -105.57299805 45.2746582 C-104.8562793 44.49348633 -104.13956055 43.71231445 -103.40112305 42.9074707 C-77.54594432 15.59429317 -37.22964138 -0.08504891 0 0 Z " fill="#5272E8" transform="translate(206.572998046875,-0.274658203125)"/>
<path d="M0 0 C0.77364812 -0.00297112 1.54729624 -0.00594224 2.34438825 -0.0090034 C4.93901473 -0.01768096 7.53359502 -0.01919785 10.12823486 -0.02069092 C11.98774311 -0.02531977 13.8472504 -0.03034452 15.70675659 -0.03573608 C20.76061435 -0.0488559 25.81445883 -0.05530427 30.86833096 -0.05974674 C34.02630988 -0.06267824 37.18428517 -0.0667832 40.34226227 -0.07125092 C50.22435195 -0.08492495 60.10643334 -0.09459198 69.98853183 -0.09845281 C81.39308617 -0.10293299 92.79752063 -0.1204795 104.20203853 -0.1494534 C113.01915887 -0.17107568 121.8362455 -0.18115739 130.65339208 -0.18249393 C135.91860007 -0.18354159 141.18369536 -0.18944123 146.44887543 -0.20731354 C151.40321616 -0.22380353 156.35735957 -0.22594517 161.31171799 -0.21717453 C163.12733107 -0.21640465 164.94295481 -0.22074044 166.75854111 -0.23063278 C169.24306963 -0.24337302 171.72690145 -0.23746447 174.21142578 -0.22705078 C174.92467475 -0.23510719 175.63792371 -0.24316359 176.37278628 -0.25146413 C182.87821638 -0.18798221 188.20827814 1.32370239 193.17218018 5.51544189 C198.82739628 12.30170121 199.50946021 17.44353544 199.52081299 26.09649658 C199.52577789 27.00106598 199.5307428 27.90563538 199.53585815 28.83761597 C199.55045862 31.8291907 199.55727866 34.82071239 199.56280518 37.81231689 C199.56855885 39.89493816 199.57431656 41.97755942 199.58007812 44.06018066 C199.59058243 48.42808275 199.59642867 52.79596646 199.59991455 57.16387939 C199.60539468 62.75016162 199.62941497 68.33619955 199.65788651 73.92240524 C199.67654728 78.22563375 199.68172035 82.52880385 199.68325043 86.8320694 C199.68627026 88.89087508 199.69427613 90.9496799 199.70743561 93.00844574 C199.7245661 95.89475364 199.7225986 98.78047041 199.71612549 101.66680908 C199.72534027 102.51073212 199.73455505 103.35465515 199.74404907 104.22415161 C199.69688994 110.96586013 198.47435602 116.48199227 194.17218018 121.89044189 C188.23500286 126.64018374 182.84985176 128.7433133 175.1758728 128.65510559 C174.39205101 128.66205112 173.60822922 128.66899665 172.80065525 128.67615265 C170.19519668 128.69433184 167.59065807 128.6841841 164.98516846 128.67388916 C163.10860517 128.6809523 161.23204759 128.68969898 159.35549927 128.69999695 C154.2727253 128.72245781 149.19026322 128.71955866 144.10745859 128.71067548 C139.85806707 128.70555698 135.60873371 128.71286526 131.35934818 128.72014755 C121.33092383 128.73713653 111.30265168 128.73359129 101.27423096 128.71685791 C90.94264556 128.69994111 80.61148282 128.71576746 70.27994359 128.74808079 C61.39644062 128.77480837 52.51306896 128.78204401 43.62952983 128.77356571 C38.32961642 128.76864532 33.02995718 128.77080394 27.73007584 128.79135323 C22.74433353 128.80975977 17.75919719 128.80369083 12.77348709 128.77915382 C10.94904378 128.77416152 9.1245539 128.77759442 7.30014801 128.79030228 C-11.44297865 128.91047767 -11.44297865 128.91047767 -18.64031982 123.14044189 C-24.12603542 116.49222387 -24.79035835 110.64033501 -24.80145264 102.18438721 C-24.80641754 101.27981781 -24.81138245 100.37524841 -24.8164978 99.44326782 C-24.83109827 96.45169309 -24.83791831 93.4601714 -24.84344482 90.46856689 C-24.8491985 88.38594563 -24.85495621 86.30332437 -24.86071777 84.22070312 C-24.87122208 79.85280104 -24.87706832 75.48491733 -24.8805542 71.11700439 C-24.88603433 65.53072217 -24.91005461 59.94468424 -24.93852615 54.35847855 C-24.95718693 50.05525004 -24.96235999 45.75207994 -24.96389008 41.44881439 C-24.96690991 39.39000871 -24.97491577 37.33120389 -24.98807526 35.27243805 C-25.00520575 32.38613015 -25.00323825 29.50041338 -24.99676514 26.61407471 C-25.00597992 25.77015167 -25.0151947 24.92622864 -25.02468872 24.05673218 C-24.97704515 17.24576994 -23.78148745 11.67603514 -19.26531982 6.32794189 C-12.88456566 1.01064675 -8.14951185 -0.00977802 0 0 Z M14.42218018 50.07794189 C10.12261648 55.50215999 8.87032784 59.67108215 9.05499268 66.58575439 C9.91080126 73.76138023 13.87513201 78.28930207 19.34796143 82.73028564 C24.12400969 86.07815637 28.63151987 86.63424882 34.35968018 86.14044189 C41.32433358 84.3195306 46.2195353 81.25710463 50.17218018 75.14044189 C53.06878983 69.54952548 53.35424929 64.30512648 52.35968018 58.14044189 C50.23294833 51.48550111 46.36975858 47.86943362 40.54327393 44.23419189 C31.06026006 39.48420284 21.28955645 42.52525572 14.42218018 50.07794189 Z M127.35968018 49.14044189 C123.00928145 54.78874964 121.48066559 60.01990318 121.81671143 67.14044189 C122.90269595 73.14070171 125.70653972 77.93457416 130.39874268 81.83575439 C135.92260637 85.4562643 140.71425749 86.68514867 147.35968018 86.14044189 C155.53389624 83.86902256 160.47846969 78.9007027 164.79718018 71.76544189 C166.21568908 65.14573368 166.17283814 58.99686699 162.75811768 53.02716064 C158.84493981 47.74764972 153.93040731 43.39866624 147.35968018 42.14044189 C139.7560996 41.43640666 132.73905738 43.61567611 127.35968018 49.14044189 Z " fill="#6065EC" transform="translate(168.64031982421875,202.85955810546875)"/>
<path d="M0 0 C8.80463982 6.32052608 14.68423362 15.7927691 16.46484375 26.4921875 C17.34377303 38.44224521 15.16981327 48.15537946 7.46484375 57.4921875 C1.9497128 63.44049924 -3.7061649 67.24264745 -11.53515625 69.4921875 C-12.19515625 69.4921875 -12.85515625 69.4921875 -13.53515625 69.4921875 C-13.53515625 80.0521875 -13.53515625 90.6121875 -13.53515625 101.4921875 C-18.81515625 101.4921875 -24.09515625 101.4921875 -29.53515625 101.4921875 C-29.53515625 90.9321875 -29.53515625 80.3721875 -29.53515625 69.4921875 C-32.83515625 68.5021875 -36.13515625 67.5121875 -39.53515625 66.4921875 C-49.13851915 60.32883519 -56.38061162 52.36891137 -59.12109375 41.078125 C-60.91119474 29.89843767 -59.18642974 19.65158063 -52.8515625 10.234375 C-50.95111215 7.71923892 -48.87424331 5.60307094 -46.53515625 3.4921875 C-45.68953125 2.6465625 -44.84390625 1.8009375 -43.97265625 0.9296875 C-31.71472985 -8.92655866 -12.91177807 -7.67942425 0 0 Z " fill="#338DDF" transform="translate(277.53515625,37.5078125)"/>
</svg>
